<svg class="animated" id="freepik_stories-internet-day" xmlns="http://www.w3.org/2000/svg" viewBox="0 0 500 500" version="1.1" xmlns:xlink="http://www.w3.org/1999/xlink" xmlns:svgjs="http://svgjs.com/svgjs"><style>svg#freepik_stories-internet-day:not(.animated) .animable {opacity: 0;}svg#freepik_stories-internet-day.animated #freepik--background-simple--inject-473 {animation: 1s 1 forwards cubic-bezier(.36,-0.01,.5,1.38) lightSpeedRight;animation-delay: 0s;}svg#freepik_stories-internet-day.animated #el6c2vmzl5ygn {animation: 1s 1 forwards cubic-bezier(.36,-0.01,.5,1.38) slideUp;animation-delay: 0s;}svg#freepik_stories-internet-day.animated #elw2r67v0l1lr {animation: 1s 1 forwards cubic-bezier(.36,-0.01,.5,1.38) slideUp;animation-delay: 0.25s;opacity: 0}svg#freepik_stories-internet-day.animated #elrv594zuuu4e {animation: 1s 1 forwards cubic-bezier(.36,-0.01,.5,1.38) slideUp;animation-delay: 0.5s;opacity: 0}svg#freepik_stories-internet-day.animated #elj10bfc7ha2q {animation: 1s 1 forwards cubic-bezier(.36,-0.01,.5,1.38) slideUp;animation-delay: 0.75s;opacity: 0}svg#freepik_stories-internet-day.animated #freepik--wifi-icon--inject-473 {animation: 1s 1 forwards cubic-bezier(.36,-0.01,.5,1.38) slideUp,1.5s Infinite  linear floating;animation-delay: 0s,1s;}svg#freepik_stories-internet-day.animated #freepik--globe-icon--inject-473 {animation: 1s 1 forwards cubic-bezier(.36,-0.01,.5,1.38) slideUp,1.5s Infinite  linear floating;animation-delay: 0s,1s;}svg#freepik_stories-internet-day.animated #freepik--ubication-icon--inject-473 {animation: 1s 1 forwards cubic-bezier(.36,-0.01,.5,1.38) slideUp,1.5s Infinite  linear floating;animation-delay: 0s,1s;}svg#freepik_stories-internet-day.animated #freepik--chat-icon--inject-473 {animation: 1s 1 forwards cubic-bezier(.36,-0.01,.5,1.38) slideUp,1.5s Infinite  linear floating;animation-delay: 0s,1s;}svg#freepik_stories-internet-day.animated #freepik--email-icon--inject-473 {animation: 1s 1 forwards cubic-bezier(.36,-0.01,.5,1.38) slideUp,1.5s Infinite  linear floating;animation-delay: 0s,1s;}svg#freepik_stories-internet-day.animated #freepik--cloud-icon--inject-473 {animation: 1s 1 forwards cubic-bezier(.36,-0.01,.5,1.38) slideUp,1.5s Infinite  linear floating;animation-delay: 0s,1s;}svg#freepik_stories-internet-day.animated #freepik--share-icon--inject-473 {animation: 1s 1 forwards cubic-bezier(.36,-0.01,.5,1.38) slideUp,1.5s Infinite  linear floating;animation-delay: 0s,1s;}svg#freepik_stories-internet-day.animated #freepik--Plant--inject-473 {animation: 1s 1 forwards cubic-bezier(.36,-0.01,.5,1.38) slideUp,1.5s Infinite  linear floating;animation-delay: 0s,1s;}svg#freepik_stories-internet-day.animated #freepik--Device--inject-473 {animation: 1s 1 forwards cubic-bezier(.36,-0.01,.5,1.38) slideUp,1.5s Infinite  linear floating;animation-delay: 0s,1s;}svg#freepik_stories-internet-day.animated #freepik--Character--inject-473 {animation: 1s 1 forwards cubic-bezier(.36,-0.01,.5,1.38) slideUp,1.5s Infinite  linear floating;animation-delay: 0s,1s;}svg#freepik_stories-internet-day.animated #freepik--Floor--inject-473 {animation: 1s 1 forwards cubic-bezier(.36,-0.01,.5,1.38) slideUp;animation-delay: 0s;}            @keyframes lightSpeedRight {              from {                transform: translate3d(50%, 0, 0) skewX(-20deg);                opacity: 0;              }              60% {                transform: skewX(10deg);                opacity: 1;              }              80% {                transform: skewX(-2deg);              }              to {                opacity: 1;                transform: translate3d(0, 0, 0);              }            }                    @keyframes slideUp {                0% {                    opacity: 0;                    transform: translateY(30px);                }                100% {                    opacity: 1;                    transform: inherit;                }            }                    @keyframes floating {                0% {                    opacity: 1;                    transform: translateY(0px);                }                50% {                    transform: translateY(-10px);                }                100% {                    opacity: 1;                    transform: translateY(0px);                }            }        </style><g id="freepik--background-simple--inject-473" class="animable" style="transform-origin: 249.023px 254.285px;"><path d="M402.12,428.84a118.5,118.5,0,0,0,38.24-40.42C497.52,289,484.61,142.26,374.53,79.36c-50.88-29.07-124.12-47.47-179.1-17.61-44.6,24.22-71.94,69.81-94.55,111.3-14.23,26.09-25.94,54.17-43.45,78.58C34.7,283.29,9.69,325.57,34.94,362.35c34.41,50.1,99.4,73,158.34,88,63.94,16.34,135.83,18.66,194.89-13.21Q395.34,433.31,402.12,428.84Z" style="fill: rgb(255, 193, 0); transform-origin: 249.023px 254.285px;" id="elqzzkmh2p159" class="animable"></path><g id="elohgm0fd4cg"><path d="M402.12,428.84a118.5,118.5,0,0,0,38.24-40.42C497.52,289,484.61,142.26,374.53,79.36c-50.88-29.07-124.12-47.47-179.1-17.61-44.6,24.22-71.94,69.81-94.55,111.3-14.23,26.09-25.94,54.17-43.45,78.58C34.7,283.29,9.69,325.57,34.94,362.35c34.41,50.1,99.4,73,158.34,88,63.94,16.34,135.83,18.66,194.89-13.21Q395.34,433.31,402.12,428.84Z" style="fill: rgb(255, 255, 255); opacity: 0.7; transform-origin: 249.023px 254.285px;" class="animable"></path></g></g><g id="freepik--wifi-icon--inject-473" class="animable" style="transform-origin: 338.163px 164.104px;"><path d="M338.24,85.87c42,.65,77.12,16.6,104.75,48.5a9.71,9.71,0,0,1-.9,14,9.58,9.58,0,0,1-13.67-1.28,120.2,120.2,0,0,0-35.33-28.48,117.06,117.06,0,0,0-130.8,14.24c-5.08,4.29-9.6,9.28-14.18,14.13-4,4.21-9.81,4.88-14,1.27s-4.45-9.64-.67-14Q268.15,94,320.82,86.7c2.75-.38,5.52-.67,8.3-.8C332.15,85.76,335.2,85.87,338.24,85.87Z" style="fill: rgb(38, 50, 56); transform-origin: 338.163px 118.243px;" id="el6c2vmzl5ygn" class="animable"></path><path d="M341.71,124.85c26.57.69,51.56,12,71.21,34.76,3.88,4.48,3.43,10.26-.88,14-4.09,3.52-10,3.05-13.81-1.33-10.26-11.88-22.69-20.59-37.85-24.68-30.89-8.34-57.6-.74-80,22.13-.83.85-1.6,1.76-2.39,2.65a9.71,9.71,0,1,1-14.68-12.72,97.47,97.47,0,0,1,31.33-24.56C308.43,128.23,323,124.92,341.71,124.85Z" style="fill: rgb(38, 50, 56); transform-origin: 338.255px 150.398px;" id="elw2r67v0l1lr" class="animable"></path><path d="M385.43,191.34a9.72,9.72,0,0,1-6.21,9.09,9.59,9.59,0,0,1-10.83-2.72,41.17,41.17,0,0,0-14.84-11c-16-6.76-33.55-2.56-45.42,10.84-2.81,3.18-6.32,4.33-10.38,3.1A9.71,9.71,0,0,1,293.24,185c20.32-24.5,57.7-28,82.15-7.54a59,59,0,0,1,7.69,7.71c1.35,1.64,1.93,3.91,2.86,5.9Z" style="fill: rgb(38, 50, 56); transform-origin: 338.403px 182.625px;" id="elrv594zuuu4e" class="animable"></path><path d="M338.2,242.38A19.51,19.51,0,1,1,357.65,223,19.42,19.42,0,0,1,338.2,242.38Z" style="fill: rgb(38, 50, 56); transform-origin: 338.14px 222.87px;" id="elj10bfc7ha2q" class="animable"></path></g><g id="freepik--globe-icon--inject-473" class="animable" style="transform-origin: 204.83px 188.61px;"><g id="elkkxyf7vx4bl"><circle cx="204.83" cy="319.36" r="23.25" style="fill: none; stroke: rgb(38, 50, 56); stroke-linecap: round; stroke-linejoin: round; stroke-width: 2px; transform-origin: 204.83px 319.36px; transform: rotate(-45deg);" class="animable"></circle></g><ellipse cx="204.83" cy="319.36" rx="11.5" ry="23.25" style="fill: none; stroke: rgb(38, 50, 56); stroke-linecap: round; stroke-linejoin: round; stroke-width: 2px; transform-origin: 204.83px 319.36px;" id="el1vhc23ylc6c" class="animable"></ellipse><path d="M188.83,302.91a23.25,23.25,0,0,0,32.22-.21" style="fill: none; stroke: rgb(38, 50, 56); stroke-linecap: round; stroke-linejoin: round; stroke-width: 2px; transform-origin: 204.94px 305.996px;" id="elpchrg8u3rem" class="animable"></path><path d="M220.89,335.87a23.24,23.24,0,0,0-32.36.22" style="fill: none; stroke: rgb(38, 50, 56); stroke-linecap: round; stroke-linejoin: round; stroke-width: 2px; transform-origin: 204.71px 332.756px;" id="el14xlkldqazy" class="animable"></path><line x1="181.58" y1="319.36" x2="228.08" y2="319.36" style="fill: none; stroke: rgb(38, 50, 56); stroke-linecap: round; stroke-linejoin: round; stroke-width: 2px; transform-origin: 204.83px 319.36px;" id="el70jsgwzxa36" class="animable"></line><line x1="204.83" y1="296.11" x2="204.83" y2="342.61" style="fill: none; stroke: rgb(38, 50, 56); stroke-linecap: round; stroke-linejoin: round; stroke-width: 2px; transform-origin: 204.83px 319.36px;" id="elxh778ry36sr" class="animable"></line><line x1="204.94" y1="288.76" x2="204.94" y2="286.26" style="fill: none; stroke: rgb(38, 50, 56); stroke-linecap: round; stroke-linejoin: round; transform-origin: 204.94px 287.51px;" id="elrzjt6mykfha" class="animable"></line><line x1="204.94" y1="281.18" x2="204.94" y2="30.01" style="fill: none; stroke: rgb(38, 50, 56); stroke-linecap: round; stroke-linejoin: round; stroke-dasharray: 5.07416, 5.07416; transform-origin: 204.94px 155.595px;" id="elf3ey6dr9gkb" class="animable"></line><line x1="204.94" y1="27.48" x2="204.94" y2="24.98" style="fill: none; stroke: rgb(38, 50, 56); stroke-linecap: round; stroke-linejoin: round; transform-origin: 204.94px 26.23px;" id="elnmq64v5fe4l" class="animable"></line></g><g id="freepik--ubication-icon--inject-473" class="animable" style="transform-origin: 167.445px 108.475px;"><path d="M167.43,153.23A14.45,14.45,0,0,0,153,167.68c0,8,14.45,24.29,14.45,24.29s14.44-16.31,14.44-24.29A14.44,14.44,0,0,0,167.43,153.23Zm0,21a6.57,6.57,0,1,1,6.56-6.56A6.57,6.57,0,0,1,167.43,174.24Z" style="fill: rgb(38, 50, 56); stroke: rgb(38, 50, 56); stroke-linecap: round; stroke-linejoin: round; transform-origin: 167.445px 172.6px;" id="elg5rmbokgv2c" class="animable"></path><line x1="167.43" y1="153.23" x2="167.43" y2="150.73" style="fill: none; stroke: rgb(38, 50, 56); stroke-linecap: round; stroke-linejoin: round; transform-origin: 167.43px 151.98px;" id="elo494n0rx259" class="animable"></line><line x1="167.43" y1="145.8" x2="167.43" y2="29.94" style="fill: none; stroke: rgb(38, 50, 56); stroke-linecap: round; stroke-linejoin: round; stroke-dasharray: 4.93014, 4.93014; transform-origin: 167.43px 87.87px;" id="elwkimjuaglj" class="animable"></line><line x1="167.43" y1="27.48" x2="167.43" y2="24.98" style="fill: none; stroke: rgb(38, 50, 56); stroke-linecap: round; stroke-linejoin: round; transform-origin: 167.43px 26.23px;" id="el91u7p4r1t2" class="animable"></line></g><g id="freepik--chat-icon--inject-473" class="animable" style="transform-origin: 124.575px 170.305px;"><path d="M133.27,271.76H104.64a8.44,8.44,0,0,0-8.44,8.44v13a8.44,8.44,0,0,0,8.44,8.44h0l.29,13.1,9-13.1h19.36a8.44,8.44,0,0,0,8.44-8.44v-13A8.44,8.44,0,0,0,133.27,271.76Z" style="fill: rgb(255, 255, 255); stroke: rgb(38, 50, 56); stroke-linecap: round; stroke-linejoin: round; transform-origin: 118.965px 293.25px;" id="ele4vrlm50paj" class="animable"></path><path d="M122.47,278.79H146a7,7,0,0,1,6.95,6.94v10.72a7,7,0,0,1-6.95,6.94h0l-.23,10.76-7.38-10.76H122.47a6.94,6.94,0,0,1-6.94-6.94V285.73A6.94,6.94,0,0,1,122.47,278.79Z" style="fill: rgb(38, 50, 56); stroke: rgb(38, 50, 56); stroke-linecap: round; stroke-linejoin: round; transform-origin: 134.24px 296.47px;" id="el8l37mhkjg27" class="animable"></path><path d="M129.5,291.08a2.59,2.59,0,1,0-2.58,2.59A2.59,2.59,0,0,0,129.5,291.08Z" style="fill: rgb(255, 193, 0); transform-origin: 126.91px 291.08px;" id="el4lc36553ts" class="animable"></path><circle cx="134.93" cy="291.08" r="2.59" style="fill: rgb(255, 193, 0); transform-origin: 134.93px 291.08px;" id="elpycyicdvfvg" class="animable"></circle><circle cx="142.94" cy="291.08" r="2.59" style="fill: rgb(255, 193, 0); transform-origin: 142.94px 291.08px;" id="eli5gytf4zpfs" class="animable"></circle><line x1="127.51" y1="262.61" x2="127.51" y2="260.11" style="fill: none; stroke: rgb(38, 50, 56); stroke-linecap: round; stroke-linejoin: round; transform-origin: 127.51px 261.36px;" id="el257634o5s2c" class="animable"></line><line x1="127.51" y1="255.18" x2="127.51" y2="30.84" style="fill: none; stroke: rgb(38, 50, 56); stroke-linecap: round; stroke-linejoin: round; stroke-dasharray: 4.93051, 4.93051; transform-origin: 127.51px 143.01px;" id="elwb1mc8m44k" class="animable"></line><line x1="127.51" y1="28.37" x2="127.51" y2="25.87" style="fill: none; stroke: rgb(38, 50, 56); stroke-linecap: round; stroke-linejoin: round; transform-origin: 127.51px 27.12px;" id="elimyynw1hjt" class="animable"></line></g><g id="freepik--email-icon--inject-473" class="animable" style="transform-origin: 91.555px 179.63px;"><rect x="66.27" y="189.15" width="50.56" height="29.55" style="fill: rgb(255, 255, 255); stroke: rgb(38, 50, 56); stroke-linecap: round; stroke-linejoin: round; transform-origin: 91.55px 203.925px;" id="elrx0kzp9q6cn" class="animable"></rect><polygon points="66.27 218.7 91.16 195.72 116.84 218.7 66.27 218.7" style="fill: rgb(255, 255, 255); stroke: rgb(38, 50, 56); stroke-linecap: round; stroke-linejoin: round; transform-origin: 91.555px 207.21px;" id="el1xzkyshtgme" class="animable"></polygon><polygon points="66.27 189.15 91.56 203.93 116.84 189.15 66.27 189.15" style="fill: rgb(255, 255, 255); stroke: rgb(38, 50, 56); stroke-linecap: round; stroke-linejoin: round; transform-origin: 91.555px 196.54px;" id="elnc6qetjtuj8" class="animable"></polygon><line x1="91.11" y1="187.8" x2="91.11" y2="185.3" style="fill: none; stroke: rgb(38, 50, 56); stroke-linecap: round; stroke-linejoin: round; transform-origin: 91.11px 186.55px;" id="el34zu488ljq4" class="animable"></line><line x1="91.11" y1="180.61" x2="91.11" y2="145.4" style="fill: none; stroke: rgb(38, 50, 56); stroke-linecap: round; stroke-linejoin: round; stroke-dasharray: 4.69405, 4.69405; transform-origin: 91.11px 163.005px;" id="elphrk4nn4u5" class="animable"></line><line x1="91.11" y1="143.06" x2="91.11" y2="140.56" style="fill: none; stroke: rgb(38, 50, 56); stroke-linecap: round; stroke-linejoin: round; transform-origin: 91.11px 141.81px;" id="eltzlyl7gd5wc" class="animable"></line></g><g id="freepik--cloud-icon--inject-473" class="animable" style="transform-origin: 78.193px 80.0276px;"><path d="M104.63,97.88a27.39,27.39,0,0,0-50.92,4.94c-.44,0-.88-.07-1.32-.07a16.58,16.58,0,0,0-2.22,33.05V136h51.15a19.15,19.15,0,0,0,3.31-38.08Z" style="fill: rgb(255, 255, 255); stroke: rgb(38, 50, 56); stroke-linecap: round; stroke-linejoin: round; transform-origin: 78.193px 109.356px;" id="elxmsiym2gkrh" class="animable"></path><line x1="80.08" y1="82.71" x2="80.08" y2="80.21" style="fill: none; stroke: rgb(38, 50, 56); stroke-linecap: round; stroke-linejoin: round; transform-origin: 80.08px 81.46px;" id="eli3lrtciuwd" class="animable"></line><line x1="80.08" y1="75.33" x2="80.08" y2="28.99" style="fill: none; stroke: rgb(38, 50, 56); stroke-linecap: round; stroke-linejoin: round; stroke-dasharray: 4.87837, 4.87837; transform-origin: 80.08px 52.16px;" id="elpu2phi60v4" class="animable"></line><line x1="80.08" y1="26.55" x2="80.08" y2="24.05" style="fill: none; stroke: rgb(38, 50, 56); stroke-linecap: round; stroke-linejoin: round; transform-origin: 80.08px 25.3px;" id="elhgm5bn6bd56" class="animable"></line></g><g id="freepik--share-icon--inject-473" class="animable" style="transform-origin: 37.2368px 155.897px;"><path d="M47.58,261.1a5.25,5.25,0,0,0-3.17,1.08l-12.59-9.45a5.05,5.05,0,0,0,.35-1.87A5.26,5.26,0,1,0,30.09,255l12.59,9.44a5.36,5.36,0,0,0-.35,1.88,5.27,5.27,0,0,0,.35,1.87l-12.59,9.44a5.25,5.25,0,1,0,2.08,4.19,5.15,5.15,0,0,0-.35-1.88l12.59-9.44a5.25,5.25,0,1,0,3.17-9.44Z" style="fill: rgb(38, 50, 56); transform-origin: 37.2368px 266.307px;" id="elpz8kcqhye7" class="animable"></path><line x1="39.84" y1="88.78" x2="39.84" y2="86.28" style="fill: none; stroke: rgb(38, 50, 56); stroke-linecap: round; stroke-linejoin: round; transform-origin: 39.84px 87.53px;" id="eluseqm802nze" class="animable"></line><line x1="39.84" y1="80.91" x2="39.84" y2="29.91" style="fill: none; stroke: rgb(38, 50, 56); stroke-linecap: round; stroke-linejoin: round; stroke-dasharray: 5.36827, 5.36827; transform-origin: 39.84px 55.41px;" id="eltm4xc9gpwi" class="animable"></line><line x1="39.84" y1="27.23" x2="39.84" y2="24.73" style="fill: none; stroke: rgb(38, 50, 56); stroke-linecap: round; stroke-linejoin: round; transform-origin: 39.84px 25.98px;" id="elkldtf74oblr" class="animable"></line><line x1="39.84" y1="249.98" x2="39.84" y2="247.48" style="fill: none; stroke: rgb(38, 50, 56); stroke-linecap: round; stroke-linejoin: round; transform-origin: 39.84px 248.73px;" id="el7k8a7ujuq79" class="animable"></line><line x1="39.84" y1="242.47" x2="39.84" y2="144.64" style="fill: none; stroke: rgb(38, 50, 56); stroke-linecap: round; stroke-linejoin: round; stroke-dasharray: 5.0168, 5.0168; transform-origin: 39.84px 193.555px;" id="elf1aosf63nod" class="animable"></line><line x1="39.84" y1="142.13" x2="39.84" y2="139.63" style="fill: none; stroke: rgb(38, 50, 56); stroke-linecap: round; stroke-linejoin: round; transform-origin: 39.84px 140.88px;" id="elju9rmuv10s" class="animable"></line></g><g id="freepik--Plant--inject-473" class="animable" style="transform-origin: 94.975px 400.359px;"><ellipse cx="93.39" cy="371.93" rx="12.68" ry="33.26" style="fill: rgb(255, 193, 0); stroke: rgb(38, 50, 56); stroke-miterlimit: 10; transform-origin: 93.39px 371.93px;" id="elb8fybfake8v" class="animable"></ellipse><g id="el74th6qh66e3"><ellipse cx="122.96" cy="348.29" rx="23.7" ry="10.32" style="fill: rgb(255, 193, 0); stroke: rgb(38, 50, 56); stroke-miterlimit: 10; transform-origin: 122.96px 348.29px; transform: rotate(-72.37deg);" class="animable"></ellipse></g><path d="M39.75,426.65c-12.91-2.19-22.6-8.52-21.65-14.13s12.19-8.4,25.09-6.22,22.6,8.52,21.65,14.13S52.65,428.83,39.75,426.65Z" style="fill: rgb(255, 193, 0); stroke: rgb(38, 50, 56); stroke-miterlimit: 10; transform-origin: 41.47px 416.475px;" id="elmgr7yinsb4" class="animable"></path><path d="M144.73,395.9c-10.78,10.69-23.52,15.33-28.45,10.35s-.19-17.67,10.59-28.36,23.52-15.33,28.45-10.35S155.51,385.21,144.73,395.9Z" style="fill: rgb(255, 193, 0); stroke: rgb(38, 50, 56); stroke-miterlimit: 10; transform-origin: 135.8px 386.895px;" id="elac2b191q2k4" class="animable"></path><path d="M70.44,366.57C80.87,381.7,84,397.64,77.38,402.18S57,398.15,46.57,383,33,352,39.63,347.41,60,351.45,70.44,366.57Z" style="fill: rgb(255, 193, 0); stroke: rgb(38, 50, 56); stroke-miterlimit: 10; transform-origin: 58.5028px 374.786px;" id="elrzhkvz2mpx" class="animable"></path><line x1="94.28" y1="403.53" x2="95.26" y2="449.26" style="fill: none; stroke: rgb(38, 50, 56); stroke-linecap: round; stroke-miterlimit: 10; transform-origin: 94.77px 426.395px;" id="elxv1s2mxr7tc" class="animable"></line><line x1="93.1" y1="359.56" x2="94.28" y2="403.53" style="fill: none; stroke: rgb(38, 50, 56); stroke-linecap: round; stroke-miterlimit: 10; transform-origin: 93.69px 381.545px;" id="elbss273agypr" class="animable"></line><line x1="93.18" y1="352.39" x2="93.1" y2="355.76" style="fill: none; stroke: rgb(38, 50, 56); stroke-linecap: round; stroke-miterlimit: 10; transform-origin: 93.14px 354.075px;" id="elhclrdcug7i5" class="animable"></line><path d="M77.33,400a127.65,127.65,0,0,1,12.53,48" style="fill: none; stroke: rgb(38, 50, 56); stroke-linecap: round; stroke-miterlimit: 10; transform-origin: 83.595px 424px;" id="ely7q5f5thmn" class="animable"></path><path d="M55.55,366.7A150.6,150.6,0,0,1,77.33,400" style="fill: none; stroke: rgb(38, 50, 56); stroke-linecap: round; stroke-miterlimit: 10; transform-origin: 66.44px 383.35px;" id="elug2z8kuk5s" class="animable"></path><path d="M48.7,359.45s1.31,1.21,3.47,3.5" style="fill: none; stroke: rgb(38, 50, 56); stroke-linecap: round; stroke-miterlimit: 10; transform-origin: 50.435px 361.2px;" id="el1w6iaih5ia" class="animable"></path><path d="M117.07,404.72a150.09,150.09,0,0,0-20.56,40.79" style="fill: none; stroke: rgb(38, 50, 56); stroke-linecap: round; stroke-miterlimit: 10; transform-origin: 106.79px 425.115px;" id="el9sdx0865vva" class="animable"></path><path d="M131.65,388a119.81,119.81,0,0,0-14.58,16.76" style="fill: none; stroke: rgb(38, 50, 56); stroke-linecap: round; stroke-miterlimit: 10; transform-origin: 124.36px 396.38px;" id="elfrdmlityf6m" class="animable"></path><path d="M147.23,376.08A66.64,66.64,0,0,0,136.12,384" style="fill: none; stroke: rgb(38, 50, 56); stroke-linecap: round; stroke-miterlimit: 10; transform-origin: 141.675px 380.04px;" id="elowcwxpskqud" class="animable"></path><path d="M116.53,367.79c-7,22.11-16.45,54.77-20.85,83.13" style="fill: none; stroke: rgb(38, 50, 56); stroke-linecap: round; stroke-miterlimit: 10; transform-origin: 106.105px 409.355px;" id="el6apysgtelio" class="animable"></path><path d="M120.81,354.68c-1.25,3.73-2.7,8.15-4.28,13.11" style="fill: none; stroke: rgb(38, 50, 56); stroke-linecap: round; stroke-miterlimit: 10; transform-origin: 118.67px 361.235px;" id="eljao88mmsqdn" class="animable"></path><path d="M125.2,342s-1.23,3.39-3.21,9.19" style="fill: none; stroke: rgb(38, 50, 56); stroke-linecap: round; stroke-miterlimit: 10; transform-origin: 123.595px 346.595px;" id="elp9xbhbwc4a" class="animable"></path><path d="M64.19,417.37c8.78,3.33,17.34,9.75,21.51,21.91" style="fill: none; stroke: rgb(38, 50, 56); stroke-linecap: round; stroke-miterlimit: 10; transform-origin: 74.945px 428.325px;" id="el0kyqozl557uo" class="animable"></path><path d="M48,414.07a55.5,55.5,0,0,1,16.21,3.3" style="fill: none; stroke: rgb(38, 50, 56); stroke-linecap: round; stroke-miterlimit: 10; transform-origin: 56.105px 415.72px;" id="elh7u5e7w1y7j" class="animable"></path><path d="M37.47,414.33s1.56-.22,4.14-.32" style="fill: none; stroke: rgb(38, 50, 56); stroke-linecap: round; stroke-miterlimit: 10; transform-origin: 39.54px 414.17px;" id="el7vowj9mlyqw" class="animable"></path><path d="M150.2,426.65c12.91-2.19,22.6-8.52,21.65-14.13s-12.19-8.4-25.1-6.22-22.59,8.52-21.64,14.13S137.29,428.83,150.2,426.65Z" style="fill: rgb(255, 193, 0); stroke: rgb(38, 50, 56); stroke-miterlimit: 10; transform-origin: 148.48px 416.475px;" id="el4bk01w55ga5" class="animable"></path><path d="M126,417.27c-8.88,3.29-17.58,9.72-21.79,22" style="fill: none; stroke: rgb(38, 50, 56); stroke-linecap: round; stroke-miterlimit: 10; transform-origin: 115.105px 428.27px;" id="elft9dkla3o0n" class="animable"></path><path d="M143.33,414A56,56,0,0,0,126,417.27" style="fill: none; stroke: rgb(38, 50, 56); stroke-linecap: round; stroke-miterlimit: 10; transform-origin: 134.665px 415.635px;" id="el3nuz8h70ig9" class="animable"></path><path d="M152.47,414.33s-1-.14-2.79-.25" style="fill: none; stroke: rgb(38, 50, 56); stroke-linecap: round; stroke-miterlimit: 10; transform-origin: 151.075px 414.205px;" id="elp9cisfk0cj" class="animable"></path><path d="M125.85,478.14a61.49,61.49,0,0,0,6-26.18,54.13,54.13,0,0,0-2.4-16H61.91a53.81,53.81,0,0,0-2.4,16,61.63,61.63,0,0,0,6,26.18Z" style="fill: rgb(38, 50, 56); transform-origin: 95.68px 457.05px;" id="elq7ffnh2iaj" class="animable"></path><path d="M60.17,443.44c-.19,1.23-.34,2.47-.45,3.74h71.91c-.11-1.27-.26-2.51-.45-3.74Z" style="fill: rgb(122, 122, 122); transform-origin: 95.675px 445.31px;" id="elhfef6fahyss" class="animable"></path><path d="M130.87,462.56c.22-1.24.42-2.49.57-3.74H59.92c.15,1.25.34,2.5.57,3.74Z" style="fill: rgb(122, 122, 122); transform-origin: 95.68px 460.69px;" id="elewdck5minqd" class="animable"></path><path d="M68.24,452.17a2.91,2.91,0,1,1-2.91-2.91A2.92,2.92,0,0,1,68.24,452.17Z" style="fill: rgb(140, 140, 140); transform-origin: 65.33px 452.17px;" id="eldqvmva13k1" class="animable"></path><path d="M82.79,452.17a2.91,2.91,0,1,1-2.91-2.91A2.91,2.91,0,0,1,82.79,452.17Z" style="fill: rgb(140, 140, 140); transform-origin: 79.88px 452.17px;" id="el4i50mv5chdf" class="animable"></path><path d="M97.34,452.17a2.91,2.91,0,1,1-2.91-2.91A2.91,2.91,0,0,1,97.34,452.17Z" style="fill: rgb(140, 140, 140); transform-origin: 94.43px 452.17px;" id="elzmtha33h6vn" class="animable"></path><circle cx="108.98" cy="452.17" r="2.91" style="fill: rgb(140, 140, 140); transform-origin: 108.98px 452.17px;" id="elua8a10dvfdo" class="animable"></circle><path d="M126.44,452.17a2.91,2.91,0,1,1-2.91-2.91A2.91,2.91,0,0,1,126.44,452.17Z" style="fill: rgb(140, 140, 140); transform-origin: 123.53px 452.17px;" id="elw1e9b55t6mr" class="animable"></path></g><g id="freepik--Device--inject-473" class="animable" style="transform-origin: 313.17px 364.092px;"><path d="M443.65,250.08h0a3.86,3.86,0,0,0-4.27,3.35L420,403.17l12.62,1.42L447.07,254.3A3.88,3.88,0,0,0,443.65,250.08Z" style="fill: rgb(38, 50, 56); stroke: rgb(38, 50, 56); stroke-linecap: round; stroke-linejoin: round; transform-origin: 433.544px 327.322px;" id="elxl9bdmhl39m" class="animable"></path><path d="M248.77,250.08h0a3.86,3.86,0,0,1,4.27,3.35l19.4,149.74-12.62,1.42L245.35,254.3A3.88,3.88,0,0,1,248.77,250.08Z" style="fill: rgb(38, 50, 56); stroke: rgb(38, 50, 56); stroke-linecap: round; stroke-linejoin: round; transform-origin: 258.886px 327.322px;" id="elcioc8cba0i6" class="animable"></path><rect x="264.08" y="400.15" width="206.45" height="77.98" rx="4.59" style="fill: rgb(255, 255, 255); stroke: rgb(38, 50, 56); stroke-linecap: round; stroke-linejoin: round; transform-origin: 367.305px 439.14px;" id="elsjt7a0pm5bm" class="animable"></rect><rect x="259.71" y="409.77" width="215.19" height="58.76" rx="4.17" style="fill: rgb(255, 255, 255); stroke: rgb(38, 50, 56); stroke-linecap: round; stroke-linejoin: round; transform-origin: 367.305px 439.15px;" id="elfa9uckn18h" class="animable"></rect><rect x="155.81" y="400.15" width="206.45" height="77.98" rx="4.59" style="fill: rgb(255, 255, 255); stroke: rgb(38, 50, 56); stroke-linecap: round; stroke-linejoin: round; transform-origin: 259.035px 439.14px;" id="elj0dzm5vdxc" class="animable"></rect><rect x="151.44" y="409.77" width="215.19" height="58.76" rx="4.17" style="fill: rgb(255, 255, 255); stroke: rgb(38, 50, 56); stroke-linecap: round; stroke-linejoin: round; transform-origin: 259.035px 439.15px;" id="elv1oz7hk4b" class="animable"></rect><rect x="169.54" y="422.65" width="180.84" height="31.58" rx="5.01" style="fill: rgb(38, 50, 56); stroke: rgb(38, 50, 56); stroke-linecap: round; stroke-linejoin: round; transform-origin: 259.96px 438.44px;" id="elgby421wuatc" class="animable"></rect><path d="M179.59,430.3a8.39,8.39,0,1,0,6.38.06" style="fill: none; stroke: rgb(255, 193, 0); stroke-linecap: round; stroke-miterlimit: 10; stroke-width: 3px; transform-origin: 182.707px 438.39px;" id="elwlr3ki927vc" class="animable"></path><line x1="182.79" y1="427.05" x2="182.79" y2="433.26" style="fill: none; stroke: rgb(255, 193, 0); stroke-linecap: round; stroke-miterlimit: 10; stroke-width: 3px; transform-origin: 182.79px 430.155px;" id="elbj0p73o56wf" class="animable"></line></g><g id="freepik--Character--inject-473" class="animable" style="transform-origin: 317.76px 367.617px;"><path d="M280.67,447.23s-8.17,2.57-9.9,2.9-7-1-7.21,1,3.06,3.93,8.19,6,10.76,3.76,14.58,3.59,3.09-7.7,3.3-9S280.67,447.23,280.67,447.23Z" style="fill: rgb(255, 255, 255); stroke: rgb(38, 50, 56); stroke-linecap: round; stroke-linejoin: round; transform-origin: 276.592px 453.981px;" id="elsy4azqh9kxq" class="animable"></path><path d="M274.43,455.31c-6.39-2.64-9.37-4-10.67-4.65a.89.89,0,0,0-.2.51c-.16,2.09,3.06,3.93,8.19,6s10.76,3.76,14.58,3.59c1.43-.07,2.22-1.16,2.66-2.57A36.87,36.87,0,0,1,274.43,455.31Z" style="fill: rgb(255, 255, 255); stroke: rgb(38, 50, 56); stroke-linecap: round; stroke-linejoin: round; transform-origin: 276.272px 455.716px;" id="elxewklx7edv" class="animable"></path><path d="M330.32,370.55l-2.14,1.17v3.11s-44.63,7.44-45.21,11.33-2.35,61.76-2.35,61.76,7.2,7.75,8.75,6,1.95-7.36,1.95-7.36l7.4-51.26s50.27,4.62,57.86,2.28,11.28-12.44,11.47-17.11.2-6.81.2-6.81L334,369Z" style="fill: rgb(255, 193, 0); stroke: rgb(38, 50, 56); stroke-linecap: round; stroke-linejoin: round; transform-origin: 324.435px 411.589px;" id="elr1d3kgwsnbg" class="animable"></path><path d="M315.15,449.32l-.32.53a50.44,50.44,0,0,1-5.51,7.25c-3.31,3.5-8.75,6.42-8.56,7.58s3.89,1.95,16.53-1.94c5.69-1.75,9.92-1.75,10.5-3.7s-4.08-10.3-4.08-10.3Z" style="fill: rgb(255, 255, 255); stroke: rgb(38, 50, 56); stroke-linecap: round; stroke-linejoin: round; transform-origin: 314.298px 457.185px;" id="elgu3w8i3gwab" class="animable"></path><path d="M327.79,459a5.46,5.46,0,0,0-.5-2.74,76.92,76.92,0,0,1-13.3,4.88,85.49,85.49,0,0,1-12.61,2.49c-.42.41-.66.76-.62,1,.19,1.17,3.89,1.95,16.53-1.94C323,461,327.21,461,327.79,459Z" style="fill: rgb(255, 255, 255); stroke: rgb(38, 50, 56); stroke-linecap: round; stroke-linejoin: round; transform-origin: 314.281px 460.922px;" id="elmwzrj6j205q" class="animable"></path><path d="M342.58,378.91s-4.67-4.08-5.06-1.75-1.17,2.92-1.17,2.92S303.68,384,300,386.3s-4.86,5.45-2.72,10.12,16.53,55.82,16.53,55.82a23.76,23.76,0,0,0,4.67,1.55c2.14.39,6.61-1.75,6.61-1.75s-.54-9.53-1.9-12.64-6.93-39-6.93-39,23.61.09,31.59.09,16.72-6.61,18.47-12.06,1-6.61,1-6.61" style="fill: rgb(255, 193, 0); stroke: rgb(38, 50, 56); stroke-linecap: round; stroke-linejoin: round; transform-origin: 331.848px 415.139px;" id="el30r9x9wwbh3" class="animable"></path><line x1="316.24" y1="400.41" x2="315.11" y2="394.29" style="fill: none; stroke: rgb(38, 50, 56); stroke-linecap: round; stroke-linejoin: round; transform-origin: 315.675px 397.35px;" id="elgjothk7rwtt" class="animable"></line><path d="M353.37,387.51a12.17,12.17,0,0,1,1.51,2.83" style="fill: none; stroke: rgb(38, 50, 56); stroke-linecap: round; stroke-linejoin: round; transform-origin: 354.125px 388.925px;" id="eldvsdk19xvrb" class="animable"></path><path d="M344.48,380.76a22.57,22.57,0,0,1,7.64,5.2" style="fill: none; stroke: rgb(38, 50, 56); stroke-linecap: round; stroke-linejoin: round; transform-origin: 348.3px 383.36px;" id="el1hl8r9cygjo" class="animable"></path><path d="M351.87,381.86a15.63,15.63,0,0,1,7.12,6.56" style="fill: none; stroke: rgb(38, 50, 56); stroke-linecap: round; stroke-linejoin: round; transform-origin: 355.43px 385.14px;" id="el6yalxkrb6it" class="animable"></path><path d="M330.8,322.82s0,.28-.05.76c-.17,2.75-3.22,6.84-1.4,12,4.13,11.64,3.29,20.19,2.92,17.7.58,3.89-2.92,12.25-2.92,15s-7.2,3.13,9.14,8,22,4.65,26.06,3.09,7-2.92,7.39-6.22-3.11-9.14-3.3-14.2-.89-20.89-5.75-31-17.7-17.12-17.7-17.12Z" style="fill: rgb(255, 255, 255); stroke: rgb(38, 50, 56); stroke-linecap: round; stroke-linejoin: round; transform-origin: 349.87px 345.596px;" id="el8vbbjz5oqur" class="animable"></path><path d="M356.4,361c.85-.65,1.64-1.31,2.37-2" style="fill: none; stroke: rgb(38, 50, 56); stroke-linecap: round; stroke-linejoin: round; transform-origin: 357.585px 360px;" id="elkmqkej71xrc" class="animable"></path><path d="M335.9,372.44a129.55,129.55,0,0,0,17.39-9.28" style="fill: none; stroke: rgb(38, 50, 56); stroke-linecap: round; stroke-linejoin: round; transform-origin: 344.595px 367.8px;" id="eld8p2shffmse" class="animable"></path><path d="M342.17,371.32a39.69,39.69,0,0,1-7.22,2.77" style="fill: none; stroke: rgb(38, 50, 56); stroke-linecap: round; stroke-linejoin: round; transform-origin: 338.56px 372.705px;" id="elof7hn0k7d1o" class="animable"></path><path d="M345.33,369.61s-.55.34-1.47.84" style="fill: none; stroke: rgb(38, 50, 56); stroke-linecap: round; stroke-linejoin: round; transform-origin: 344.595px 370.03px;" id="el1y2dm6nrjhe" class="animable"></path><line x1="348.02" y1="343.9" x2="353.27" y2="337.49" style="fill: none; stroke: rgb(38, 50, 56); stroke-linecap: round; stroke-linejoin: round; transform-origin: 350.645px 340.695px;" id="ellxsd3p0p9ra" class="animable"></line><path d="M329,279.69a28,28,0,0,0-3.5,4.49c-.85,1.68-1,2.9-2.45,4s-4.45.39-4.37,2.12,1.88,3.38,1.88,3.38-1.46,10.56-.91,12.24,8.11,2,8.11,2l3.85,12.54,13.59-9.21.36-3.65c.34-1.48,2.78-6.06,4.8-9.5s1.12-12.5-3.76-16.4-11.34-3.5-13.33-3.64S329,279.69,329,279.69Z" style="fill: rgb(255, 255, 255); stroke: rgb(38, 50, 56); stroke-linecap: round; stroke-linejoin: round; transform-origin: 335.023px 299.256px;" id="elprtt9go0at" class="animable"></path><path d="M321.44,295.72a4.82,4.82,0,0,0,5,1.14" style="fill: none; stroke: rgb(38, 50, 56); stroke-linecap: round; stroke-linejoin: round; transform-origin: 323.94px 296.425px;" id="ell7ujoqntcvj" class="animable"></path><path d="M327.22,289.37c-.33.77-.85,1.28-1.16,1.15s-.29-.87.05-1.64.85-1.28,1.15-1.15S327.55,288.6,327.22,289.37Z" style="fill: rgb(38, 50, 56); transform-origin: 326.659px 289.125px;" id="elesd2ts2ppvr" class="animable"></path><path d="M326.69,285.55s2.93-.58,3.37,2.32" style="fill: none; stroke: rgb(38, 50, 56); stroke-linecap: round; stroke-linejoin: round; transform-origin: 328.375px 286.686px;" id="elgc74alvo6ym" class="animable"></path><polygon points="327.71 307.87 332.42 307.69 329.19 311.63 327.71 307.87" style="fill: rgb(38, 50, 56); stroke: rgb(38, 50, 56); stroke-linecap: round; stroke-linejoin: round; transform-origin: 330.065px 309.66px;" id="elf5agyjznvrk" class="animable"></polygon><polyline points="338.46 302.99 336.42 302.38 335.21 304.28" style="fill: none; stroke: rgb(38, 50, 56); stroke-linecap: round; stroke-linejoin: round; transform-origin: 336.835px 303.33px;" id="eljadjwo5vmub" class="animable"></polyline><path d="M337.32,275.05s2.94-3.38-.59-5-15.54,1.31-14.25,6.58,12.5,5.94,13.57,6-2.14,1.22-1.26,2.82,3,2.4,3.11,4.13-2,4.05-1,5.06,2.6-.5,3.62-.89,3.81,2.42,1.61,6-3.68,3.21-3.68,3.21a3.34,3.34,0,0,0,1,3.81c2,1.69,6,1.19,7-.45s2.73-3.12,6.33-6.66,5.31-12.48,2.82-18.65S341.82,272.33,337.32,275.05Z" style="fill: rgb(38, 50, 56); stroke: rgb(38, 50, 56); stroke-linecap: round; stroke-linejoin: round; transform-origin: 339.58px 288.711px;" id="elvxrjn8n79un" class="animable"></path><polygon points="345.15 307.89 326.62 321.54 327.68 327.43 348.54 312.06 345.15 307.89" style="fill: rgb(255, 255, 255); stroke: rgb(38, 50, 56); stroke-linecap: round; stroke-linejoin: round; transform-origin: 337.58px 317.66px;" id="elaujpi69aho8" class="animable"></polygon><polygon points="298.89 387.48 331.53 380.33 323.9 375.8 292.93 382.71 298.89 387.48" style="fill: rgb(255, 255, 255); stroke: rgb(38, 50, 56); stroke-linecap: round; stroke-linejoin: round; transform-origin: 312.23px 381.64px;" id="elkvud8j2xz7" class="animable"></polygon><polygon points="284.36 356.51 298.89 387.48 292.93 382.71 278.16 353.65 284.36 356.51" style="fill: rgb(38, 50, 56); stroke: rgb(38, 50, 56); stroke-linecap: round; stroke-linejoin: round; transform-origin: 288.525px 370.565px;" id="elset5ooop0b" class="animable"></polygon><path d="M310.61,374.31l-7.52,1.94L298.43,383a1.86,1.86,0,0,0,1.42.52c.78-.13,2.85-1.95,2.85-1.95l5.45-1.43s-2.85,1.69-2.85,2.08.52.52,1.81.39,4.41-3,4.41-3l2.08-2.6Z" style="fill: rgb(255, 255, 255); stroke: rgb(38, 50, 56); stroke-linecap: round; stroke-linejoin: round; transform-origin: 306.015px 378.917px;" id="el6ussn25mqe2" class="animable"></path><polygon points="330.93 340.54 327.08 358.1 310.61 374.31 314.5 377.94 328.18 371.72 329.13 369.25 332.43 354.54 330.93 340.54" style="fill: rgb(255, 255, 255); stroke: rgb(38, 50, 56); stroke-linecap: round; stroke-linejoin: round; transform-origin: 321.52px 359.24px;" id="elpxq1i2qchid" class="animable"></polygon><path d="M306.05,370.77s-5.25.78-7.19.78-6.61.39-7.39.78-4.48,2.72-4.28,4.47,3.5.2,3.5.2a24.77,24.77,0,0,0,2.53,4.47c1.55,2.14,2.33,1.36,5.44.2s7.78-4.67,7.78-4.67l2.73-2.53Z" style="fill: rgb(255, 255, 255); stroke: rgb(38, 50, 56); stroke-linecap: round; stroke-linejoin: round; transform-origin: 298.176px 376.793px;" id="elwpkadh1j3of" class="animable"></path><path d="M351.72,316.09s-8-1.17-10.89,2.72a37.49,37.49,0,0,0-6.42,15.76c-.59,5.05-4.28,15.17-4.28,15.17L305.4,370.33l4.28,6.41s30-14,30.76-14.94,10.69-26.65,10.69-26.65" style="fill: rgb(255, 255, 255); stroke: rgb(38, 50, 56); stroke-linecap: round; stroke-linejoin: round; transform-origin: 328.56px 346.332px;" id="elo63etu39kd" class="animable"></path></g><g id="freepik--Floor--inject-473" class="animable" style="transform-origin: 258.555px 478.14px;"><line x1="28.5" y1="478.14" x2="488.61" y2="478.14" style="fill: none; stroke: rgb(38, 50, 56); stroke-linecap: round; stroke-linejoin: round; transform-origin: 258.555px 478.14px;" id="elin1dfjc5nx" class="animable"></line></g><defs>     <filter id="active" height="200%">         <feMorphology in="SourceAlpha" result="DILATED" operator="dilate" radius="2"></feMorphology>                <feFlood flood-color="#32DFEC" flood-opacity="1" result="PINK"></feFlood>        <feComposite in="PINK" in2="DILATED" operator="in" result="OUTLINE"></feComposite>        <feMerge>            <feMergeNode in="OUTLINE"></feMergeNode>            <feMergeNode in="SourceGraphic"></feMergeNode>        </feMerge>    </filter>    <filter id="hover" height="200%">        <feMorphology in="SourceAlpha" result="DILATED" operator="dilate" radius="2"></feMorphology>                <feFlood flood-color="#ff0000" flood-opacity="0.5" result="PINK"></feFlood>        <feComposite in="PINK" in2="DILATED" operator="in" result="OUTLINE"></feComposite>        <feMerge>            <feMergeNode in="OUTLINE"></feMergeNode>            <feMergeNode in="SourceGraphic"></feMergeNode>        </feMerge>            <feColorMatrix type="matrix" values="0   0   0   0   0                0   1   0   0   0                0   0   0   0   0                0   0   0   1   0 "></feColorMatrix>    </filter></defs></svg>